<?xml version="1.0" encoding="utf-8"?>
<!-- Generator: Adobe Illustrator 21.1.0, SVG Export Plug-In . SVG Version: 6.00 Build 0)  -->
<svg version="1.1" id="Icons" xmlns="http://www.w3.org/2000/svg" xmlns:xlink="http://www.w3.org/1999/xlink" x="0px" y="0px"
	 viewBox="0 0 48 48" style="enable-background:new 0 0 48 48;" xml:space="preserve">
<style type="text/css">
	.st0{opacity:0.15;fill:#45413C;}
	.st1{fill:#FF6196;}
	.st2{fill:#FF87AF;}
	.st3{fill:none;stroke:#45413C;stroke-linecap:round;stroke-linejoin:round;stroke-miterlimit:10;}
	.st4{fill:#FFE500;stroke:#45413C;stroke-linecap:round;stroke-linejoin:round;stroke-miterlimit:10;}
	.st5{fill:#FFE500;}
	.st6{fill:#EBCB00;}
	.st7{fill:#EBCB00;stroke:#45413C;stroke-linecap:round;stroke-linejoin:round;stroke-miterlimit:10;}
	.st8{fill:#FFF48C;}
	.st9{fill:#FFCCDD;stroke:#FFB0CA;stroke-linecap:round;stroke-linejoin:round;stroke-miterlimit:10;}
	.st10{fill:#FFB0CA;stroke:#FF87AF;stroke-linecap:round;stroke-linejoin:round;stroke-miterlimit:10;}
	.st11{opacity:0.7;fill:#FFE5EE;}
	.st12{fill:#009FD9;}
	.st13{fill:#00B8F0;}
	.st14{fill:#656769;}
	.st15{fill:#87898C;}
	.st16{fill:#FF6242;stroke:#45413C;stroke-linecap:round;stroke-linejoin:round;stroke-miterlimit:10;}
	.st17{fill:#4AEFF7;}
	.st18{fill:#00DFEB;}
	.st19{fill:#A6FBFF;}
	.st20{fill:#FFFFFF;}
	.st21{fill:#E5F8FF;}
	.st22{fill:#E5F8FF;stroke:#45413C;stroke-linecap:round;stroke-linejoin:round;stroke-miterlimit:10;}
	.st23{fill:#FFE500;stroke:#EBCB00;stroke-linecap:round;stroke-linejoin:round;stroke-miterlimit:10;}
	.st24{fill:#BDBEC0;}
	.st25{fill:#4ACFFF;}
	.st26{fill:#E8F4FA;stroke:#45413C;stroke-linecap:round;stroke-linejoin:round;stroke-miterlimit:10;}
	.st27{fill:#80DDFF;}
	.st28{fill:#009FD9;stroke:#45413C;stroke-linecap:round;stroke-linejoin:round;stroke-miterlimit:10;}
	.st29{fill:#B8ECFF;}
	.st30{fill:#4ACFFF;stroke:#45413C;stroke-linecap:round;stroke-linejoin:round;stroke-miterlimit:10;}
	.st31{fill:#B8ECFF;stroke:#45413C;stroke-linecap:round;stroke-linejoin:round;stroke-miterlimit:10;}
	.st32{fill:#FFFACF;}
	.st33{fill:#FFF48C;stroke:#45413C;stroke-linecap:round;stroke-linejoin:round;stroke-miterlimit:10;}
	.st34{fill:#BF8256;}
	.st35{fill:#DEA47A;}
	.st36{fill:#656769;stroke:#45413C;stroke-linecap:round;stroke-linejoin:round;stroke-miterlimit:10;}
	.st37{fill:#FF8A14;}
	.st38{fill:#FFAA54;}
	.st39{fill:#EB6D00;}
	.st40{fill:#627B8C;stroke:#45413C;stroke-linecap:round;stroke-linejoin:round;stroke-miterlimit:10;}
	.st41{fill:#FFFFFF;stroke:#45413C;stroke-linecap:round;stroke-linejoin:round;stroke-miterlimit:10;}
	.st42{fill:#E0366F;stroke:#45413C;stroke-linecap:round;stroke-linejoin:round;stroke-miterlimit:10;}
	.st43{fill:#FF87AF;stroke:#45413C;stroke-linecap:round;stroke-linejoin:round;stroke-miterlimit:10;}
	.st44{fill:#E0366F;}
	.st45{fill:#FF6196;stroke:#45413C;stroke-linecap:round;stroke-linejoin:round;stroke-miterlimit:10;}
	.st46{fill:#525252;}
	.st47{fill:#DEBB7E;}
	.st48{fill:#F0D5A8;}
	.st49{fill:#DAEDF7;}
	.st50{fill:#F7E5C6;}
	.st51{fill:#DEBB7E;stroke:#45413C;stroke-linecap:round;stroke-linejoin:round;stroke-miterlimit:10;}
	.st52{fill:#FFF5E3;}
	.st53{fill:#00F5BC;}
	.st54{fill:#FFB0CA;stroke:#45413C;stroke-linecap:round;stroke-linejoin:round;stroke-miterlimit:10;}
	.st55{fill:#8CFFE4;}
	.st56{fill:#00DBA8;}
	.st57{fill:#87898C;stroke:#45413C;stroke-linecap:round;stroke-linejoin:round;stroke-miterlimit:10;}
	.st58{fill:#FF6242;}
	.st59{fill:#FF866E;}
	.st60{fill:#F0F0F0;}
	.st61{fill:#BDBEC0;stroke:#45413C;stroke-width:1.0064;stroke-linecap:round;stroke-linejoin:round;stroke-miterlimit:10;}
	.st62{fill:#947746;stroke:#45413C;stroke-linecap:round;stroke-linejoin:round;stroke-miterlimit:10;}
	.st63{fill:#B89558;}
	.st64{fill:#E04122;}
	.st65{fill:#C0DCEB;}
	.st66{fill:#E8F4FA;}
	.st67{fill:#00B8F0;stroke:#45413C;stroke-linecap:round;stroke-linejoin:round;stroke-miterlimit:10;}
	.st68{fill:#80DDFF;stroke:#45413C;stroke-linecap:round;stroke-linejoin:round;stroke-miterlimit:10;}
	.st69{fill:#9CEB60;}
	.st70{fill:#C8FFA1;}
	.st71{fill:#FFB0CA;}
	.st72{fill:#FFCCDD;}
	.st73{fill:#FFE5EE;}
	.st74{fill:#45413C;stroke:#45413C;stroke-linecap:round;stroke-linejoin:round;stroke-miterlimit:10;}
	.st75{fill:#FFCABF;}
	.st76{fill:#FFA694;}
	.st77{fill:#FFA694;stroke:#45413C;stroke-linecap:round;stroke-linejoin:round;stroke-miterlimit:10;}
	.st78{fill:#FFCC99;}
	.st79{fill:#8CA4B8;}
	.st80{fill:#ADC4D9;}
	.st81{fill:#F0D5A8;stroke:#45413C;stroke-linecap:round;stroke-linejoin:round;stroke-miterlimit:10;}
	.st82{fill:#BDBEC0;stroke:#45413C;stroke-linecap:round;stroke-linejoin:round;stroke-miterlimit:10;}
	.st83{fill:#E0E0E0;}
	.st84{fill:#45413C;}
	.st85{fill:#E5FEFF;}
	.st86{fill:#FFFCE5;}
	.st87{fill:#FFAA54;stroke:#45413C;stroke-linecap:round;stroke-linejoin:round;stroke-miterlimit:10;}
	.st88{fill:#6DD627;}
	.st89{fill:#46B000;}
	.st90{fill:#FFE8E0;}
	.st91{fill:#FFCEBF;}
	.st92{fill:#FFE8D1;}
	.st93{fill:#FFF48C;stroke:#4F4B45;stroke-linecap:round;stroke-linejoin:round;stroke-miterlimit:10;}
	.st94{fill:#FFDCD1;stroke:#4F4B45;stroke-linejoin:round;stroke-miterlimit:10;}
	.st95{fill:none;stroke:#4F4B45;stroke-linejoin:round;stroke-miterlimit:10;}
	.st96{fill:none;stroke:#4F4B45;stroke-linecap:round;stroke-linejoin:round;stroke-miterlimit:10;}
	.st97{fill:#656769;stroke:#4F4B45;stroke-linejoin:round;stroke-miterlimit:10;}
	.st98{fill:#87898C;stroke:#4F4B45;stroke-linecap:round;stroke-linejoin:round;stroke-miterlimit:10;}
	.st99{fill:#C0DCEB;stroke:#4F4B45;stroke-linecap:round;stroke-linejoin:round;stroke-miterlimit:10;}
	.st100{fill:#FFA694;stroke:#4F4B45;stroke-linecap:round;stroke-linejoin:round;stroke-miterlimit:10;}
	.st101{fill:#E04122;stroke:#45413C;stroke-linecap:round;stroke-linejoin:round;stroke-miterlimit:10;}
	.st102{fill:#FFFCE5;stroke:#45413C;stroke-linecap:round;stroke-linejoin:round;stroke-miterlimit:10;}
	.st103{fill:#915E3A;}
	.st104{fill:none;stroke:#915E3A;stroke-linecap:round;stroke-linejoin:round;stroke-miterlimit:10;}
	.st105{fill:#915E3A;stroke:#45413C;stroke-linecap:round;stroke-linejoin:round;stroke-miterlimit:10;}
	.st106{fill:#FF866E;stroke:#45413C;stroke-linecap:round;stroke-linejoin:round;stroke-miterlimit:10;}
	.st107{fill:#FFF5E3;stroke:#45413C;stroke-linecap:round;stroke-linejoin:round;stroke-miterlimit:10;}
	.st108{fill:#FFDCD1;}
	.st109{fill:#FFDCD1;stroke:#45413C;stroke-linecap:round;stroke-linejoin:round;stroke-miterlimit:10;}
	.st110{fill:#F0C2A1;}
	.st111{fill:#FFE3CF;}
	.st112{fill:#FFFACF;stroke:#45413C;stroke-linecap:round;stroke-linejoin:round;stroke-miterlimit:10;}
	.st113{fill:#DEA47A;stroke:#45413C;stroke-linecap:round;stroke-linejoin:round;stroke-miterlimit:10;}
	.st114{fill:#F0C2A1;stroke:#45413C;stroke-linecap:round;stroke-linejoin:round;stroke-miterlimit:10;}
	.st115{fill:#EB6D00;stroke:#45413C;stroke-linecap:round;stroke-linejoin:round;stroke-miterlimit:10;}
	.st116{fill:#FF8A14;stroke:#45413C;stroke-linecap:round;stroke-linejoin:round;stroke-miterlimit:10;}
	.st117{fill:#D9FDFF;}
	.st118{fill:#C8FFA1;stroke:#45413C;stroke-linecap:round;stroke-linejoin:round;stroke-miterlimit:10;}
	.st119{fill:#E4FFD1;}
	.st120{fill:#E0E0E0;stroke:#45413C;stroke-linecap:round;stroke-linejoin:round;stroke-miterlimit:10;}
	.st121{fill:#FFCCDD;stroke:#45413C;stroke-linecap:round;stroke-linejoin:round;stroke-miterlimit:10;}
	.st122{fill:#BF8256;stroke:#45413C;stroke-linecap:round;stroke-linejoin:round;stroke-miterlimit:10;}
	.st123{fill:#C0DCEB;stroke:#45413C;stroke-linecap:round;stroke-linejoin:round;stroke-miterlimit:10;}
</style>
<g id="XMLID_10734_">
	<ellipse id="XMLID_10762_" class="st0" cx="24" cy="44.3" rx="13" ry="1.7"/>
	<path id="XMLID_10761_" class="st1" d="M24,11.1c0-4.9,4-8.9,8.9-8.9c6.3,0,8.9,6.2,8.9,11.2c0,13-12.4,21.4-16.5,23.8
		c-0.8,0.5-1.9,0.5-2.7,0C18.5,34.7,6.1,26.3,6.1,13.3c0-4.9,2.7-11.2,8.9-11.2C20,2.2,24,6.2,24,11.1z"/>
	<path id="XMLID_10760_" class="st2" d="M14.6,6.6c3.8,0,7.1,2.3,8.6,5.6c0.3,0.7,1.3,0.7,1.6,0c1.5-3.3,4.7-5.6,8.6-5.6
		c4.5,0,7.2,3,8.5,6.6c0-4.9-2.7-11.1-8.9-11.1c-4.9,0-8.9,4-8.9,8.9c0-4.9-4-8.9-8.9-8.9c-6.2,0-8.9,6.1-8.9,11.1
		C7.4,9.7,10.2,6.6,14.6,6.6z"/>
	<path id="XMLID_10759_" class="st3" d="M24,11.1c0-4.9,4-8.9,8.9-8.9c6.3,0,8.9,6.2,8.9,11.2c0,13-12.4,21.4-16.5,23.8
		c-0.8,0.5-1.9,0.5-2.7,0C18.5,34.7,6.1,26.3,6.1,13.3c0-4.9,2.7-11.2,8.9-11.2C20,2.2,24,6.2,24,11.1z"/>
	<path id="XMLID_10758_" class="st4" d="M7.2,19.7c0.8,2.4,1.9,4.6,3.3,6.5c3.9,0.5,8.6,0.8,13.7,0.8c4.9,0,9.4-0.3,13.3-0.8
		c1.4-1.9,2.5-4.1,3.3-6.5c-4.4,0.8-10.2,1.3-16.6,1.3C17.6,21.1,11.6,20.6,7.2,19.7z"/>
	<g id="XMLID_10735_">
		<g id="XMLID_10754_">
			<path id="XMLID_10757_" class="st5" d="M12,25.4c0,0-3.9,1.4-4.1,7.1c0,0.7,0.7,1,1.1,0.5c0.5-0.7,1.1-1.1,1.8-1.3
				c0.5,1.2,1.3,2.3,2.1,3.3c0.4,0.5,1,0.2,1-0.5c-0.3-4.1,1.8-8.2,1.8-8.2L12,25.4z"/>
			<path id="XMLID_10756_" class="st6" d="M12,25.4c0,0-0.8,0.3-1.7,1.1c1.1,1.2,2.8,1.8,4.6,1.6c0.4-1,0.7-1.7,0.7-1.7L12,25.4z"/>
			<path id="XMLID_10755_" class="st3" d="M12,25.4c0,0-3.9,1.4-4.1,7.1c0,0.7,0.7,1,1.1,0.5c0.5-0.7,1.1-1.1,1.8-1.3
				c0.5,1.2,1.3,2.3,2.1,3.3c0.4,0.5,1,0.2,1-0.5c-0.3-4.1,1.8-8.2,1.8-8.2L12,25.4z"/>
		</g>
		<g id="XMLID_10750_">
			<path id="XMLID_10753_" class="st5" d="M18.2,23.6c0,0,4-0.8,7.2,3.9c0.4,0.6-0.1,1.2-0.6,1c-0.8-0.3-1.5-0.4-2.2-0.2
				c0.2,1.3,0.1,2.7-0.1,3.9c-0.1,0.6-0.8,0.7-1.1,0.1c-1.8-3.7-5.8-6-5.8-6L18.2,23.6z"/>
			<path id="XMLID_10752_" class="st6" d="M18.2,23.6c0,0,0.8-0.2,2,0.1c-0.3,1.6-1.5,3-3.1,3.8c-0.9-0.7-1.5-1.1-1.5-1.1L18.2,23.6
				z"/>
			<path id="XMLID_10751_" class="st3" d="M18.2,23.6c0,0,4-0.8,7.2,3.9c0.4,0.6-0.1,1.2-0.6,1c-0.8-0.3-1.5-0.4-2.2-0.2
				c0.2,1.3,0.1,2.7-0.1,3.9c-0.1,0.6-0.8,0.7-1.1,0.1c-1.8-3.7-5.8-6-5.8-6L18.2,23.6z"/>
		</g>
		<path id="XMLID_10749_" class="st7" d="M25.8,18.9c-0.7,3.8-9.1,5.1-9.1,5.1l-1.6-1.9l8.3-7.7L25.8,18.9z"/>
		<g id="XMLID_10745_">
			<path id="XMLID_10748_" class="st5" d="M15.2,22.2c0,0,2.4-8.6,7-8.5c0.5,0,1.1,0.3,1.3,0.8l2.3,4.5c-4.3-1.6-9.1,5.1-9.1,5.1
				L15.2,22.2z"/>
			<path id="XMLID_10747_" class="st8" d="M23.3,15.7c-4-0.1-6.3,6.1-6.9,8l-1.2-1.5c0,0,2.4-8.6,7-8.5c0.5,0,1.1,0.3,1.3,0.8
				l0.9,1.8C24.1,15.9,23.7,15.7,23.3,15.7z"/>
			<path id="XMLID_10746_" class="st3" d="M15.2,22.2c0,0,2.4-8.6,7-8.5c0.5,0,1.1,0.3,1.3,0.8l2.3,4.5c-4.3-1.6-9.1,5.1-9.1,5.1
				L15.2,22.2z"/>
		</g>
		<path id="XMLID_10744_" class="st7" d="M3,25.3C5.6,28.2,13.4,25,13.4,25l0.4-2.4L2.6,20.3L3,25.3z"/>
		<g id="XMLID_10740_">
			<path id="XMLID_10743_" class="st5" d="M13.8,22.6c0,0-6.5-6.1-10.4-3.6c-0.4,0.3-0.8,0.8-0.7,1.3l0.4,5
				C5.8,21.7,13.4,25,13.4,25L13.8,22.6z"/>
			<path id="XMLID_10742_" class="st8" d="M3.5,21.2c3.3-2.2,8.5,2,10,3.2l0.3-1.9c0,0-6.5-6.1-10.4-3.6c-0.4,0.3-0.8,0.8-0.7,1.3
				l0.1,2C2.8,21.8,3.1,21.4,3.5,21.2z"/>
			<path id="XMLID_10741_" class="st3" d="M13.8,22.6c0,0-6.5-6.1-10.4-3.6c-0.4,0.3-0.8,0.8-0.7,1.3l0.4,5
				C5.8,21.7,13.4,25,13.4,25L13.8,22.6z"/>
		</g>
		<g id="XMLID_10736_">
			
				<ellipse id="XMLID_10739_" transform="matrix(0.9629 -0.2698 0.2698 0.9629 -5.6786 4.8133)" class="st5" cx="14.7" cy="23.1" rx="4.2" ry="3.7"/>
			<path id="XMLID_10738_" class="st8" d="M14.1,21.2c1.5-0.4,3.1-0.4,4.2,0c-0.9-1.5-2.8-2.2-4.7-1.7c-1.9,0.5-3.2,2.2-3.2,3.9
				C11.3,22.4,12.6,21.6,14.1,21.2z"/>
			
				<ellipse id="XMLID_10737_" transform="matrix(0.9629 -0.2698 0.2698 0.9629 -5.6786 4.8133)" class="st3" cx="14.7" cy="23.1" rx="4.2" ry="3.7"/>
		</g>
	</g>
</g>
</svg>
