<?xml version="1.0" encoding="utf-8"?>
<!-- Generator: Adobe Illustrator 21.1.0, SVG Export Plug-In . SVG Version: 6.00 Build 0)  -->
<svg version="1.1" id="Icons" xmlns="http://www.w3.org/2000/svg" xmlns:xlink="http://www.w3.org/1999/xlink" x="0px" y="0px"
	 viewBox="0 0 48 48" style="enable-background:new 0 0 48 48;" xml:space="preserve">
<style type="text/css">
	.st0{opacity:0.15;fill:#45413C;}
	.st1{fill:#BF8256;}
	.st2{fill:#915E3A;}
	.st3{fill:none;stroke:#45413C;stroke-linecap:round;stroke-linejoin:round;stroke-miterlimit:10;}
	.st4{fill:#DEA47A;}
	.st5{fill:#DAEDF7;stroke:#45413C;stroke-linecap:round;stroke-linejoin:round;stroke-miterlimit:10;}
	.st6{fill:#BF8256;stroke:#45413C;stroke-linecap:round;stroke-linejoin:round;stroke-miterlimit:10;}
	.st7{fill:#FF6242;}
	.st8{fill:#FF866E;}
	.st9{fill:#DEBB7E;}
	.st10{fill:#B89558;}
	.st11{fill:#656769;}
	.st12{fill:#525252;}
	.st13{fill:#E04122;}
	.st14{fill:#FFFFFF;}
	.st15{fill:#F0F0F0;}
	.st16{fill:#00B8F0;}
	.st17{fill:#4ACFFF;}
	.st18{fill:#C0DCEB;}
	.st19{fill:#8CA4B8;}
	.st20{fill:#FF6242;stroke:#45413C;stroke-linecap:round;stroke-linejoin:round;stroke-miterlimit:10;}
	.st21{fill:#87898C;}
	.st22{fill:#E0E0E0;}
	.st23{fill:#E8F4FA;stroke:#45413C;stroke-linecap:round;stroke-linejoin:round;stroke-miterlimit:10;}
	.st24{fill:#656769;stroke:#45413C;stroke-linecap:round;stroke-linejoin:round;stroke-miterlimit:10;}
	.st25{fill:#DAEDF7;}
	.st26{fill:#E8F4FA;}
	.st27{fill:#ADC4D9;stroke:#45413C;stroke-linecap:round;stroke-linejoin:round;stroke-miterlimit:10;}
	.st28{fill:#87898C;stroke:#45413C;stroke-linecap:round;stroke-linejoin:round;stroke-miterlimit:10;}
	.st29{fill:#BDBEC0;}
	.st30{fill:#FFFFFF;stroke:#45413C;stroke-linecap:round;stroke-linejoin:round;stroke-miterlimit:10;}
	.st31{fill:#ADC4D9;}
	.st32{fill:none;stroke:#00AED9;stroke-linecap:round;stroke-linejoin:round;stroke-miterlimit:10;}
	.st33{fill:#FFFACF;}
	.st34{fill:#FFE500;}
	.st35{fill:#915E3A;stroke:#45413C;stroke-linecap:round;stroke-linejoin:round;stroke-miterlimit:10;}
	.st36{fill:#FFAA54;}
	.st37{fill:#627B8C;stroke:#45413C;stroke-linecap:round;stroke-linejoin:round;stroke-miterlimit:10;}
	.st38{fill:#FFFEF2;}
	.st39{fill:#FFFCE5;stroke:#45413C;stroke-linecap:round;stroke-linejoin:round;stroke-miterlimit:10;}
	.st40{fill:#00F5BC;}
	.st41{fill:#FFFCE5;}
	.st42{fill:#FFFEF2;stroke:#45413C;stroke-linecap:round;stroke-linejoin:round;stroke-miterlimit:10;}
	.st43{fill:#8CFFE4;}
	.st44{fill:#FFF5E3;}
	.st45{fill:#F7E5C6;}
	.st46{fill:#F7E5C6;stroke:#45413C;stroke-linecap:round;stroke-linejoin:round;stroke-miterlimit:10;}
	.st47{fill:#F0D5A8;}
	.st48{fill:#FF87AF;stroke:#45413C;stroke-linecap:round;stroke-linejoin:round;stroke-miterlimit:10;}
	.st49{fill:#45413C;}
	.st50{fill:#BDBEC0;stroke:#45413C;stroke-linecap:round;stroke-linejoin:round;stroke-miterlimit:10;}
	.st51{fill:#E0E0E0;stroke:#45413C;stroke-linecap:round;stroke-linejoin:round;stroke-miterlimit:10;}
	.st52{fill:#DEBB7E;stroke:#45413C;stroke-linecap:round;stroke-linejoin:round;stroke-miterlimit:10;}
	.st53{fill:#F5EBFF;stroke:#45413C;stroke-linecap:round;stroke-linejoin:round;stroke-miterlimit:10;}
	.st54{fill:#BF8DF2;stroke:#45413C;stroke-linecap:round;stroke-linejoin:round;stroke-miterlimit:10;}
	.st55{fill:#E4FFD1;stroke:#45413C;stroke-linecap:round;stroke-linejoin:round;stroke-miterlimit:10;}
	.st56{fill:#F0FFE5;}
	.st57{fill:#C8FFA1;stroke:#45413C;stroke-linecap:round;stroke-linejoin:round;stroke-miterlimit:10;}
	.st58{fill:#6DD627;stroke:#45413C;stroke-linecap:round;stroke-linejoin:round;stroke-miterlimit:10;}
	.st59{fill:#E5FEFF;}
	.st60{fill:#FFAA54;stroke:#45413C;stroke-linecap:round;stroke-linejoin:round;stroke-miterlimit:10;}
	.st61{fill:#9CEB60;stroke:#45413C;stroke-linecap:round;stroke-linejoin:round;stroke-miterlimit:10;}
	.st62{fill:#FFF48C;}
	.st63{fill:#00B8F0;stroke:#45413C;stroke-linecap:round;stroke-linejoin:round;stroke-miterlimit:10;}
	.st64{fill:none;stroke:#4F4B45;stroke-linejoin:round;stroke-miterlimit:10;}
	.st65{fill:#FFFFFF;stroke:#4F4B45;stroke-linejoin:round;stroke-miterlimit:10;}
	.st66{fill:#FFF5E3;stroke:#4F4B45;stroke-linejoin:round;stroke-miterlimit:10;}
	.st67{fill:#F7E5C6;stroke:#4F4B45;stroke-linejoin:round;stroke-miterlimit:10;}
	.st68{fill:#6DD627;}
	.st69{fill:#EBCB00;}
	.st70{fill:#46B000;}
	.st71{fill:none;stroke:#E0E0E0;stroke-linecap:round;stroke-linejoin:round;stroke-miterlimit:10;}
	.st72{fill:#9CEB60;}
	.st73{fill:#FFCC99;}
	.st74{fill:#BF8DF2;}
	.st75{fill:#9F5AE5;}
	.st76{fill:#DABFF5;}
	.st77{fill:#F0F0F0;stroke:#45413C;stroke-linecap:round;stroke-linejoin:round;stroke-miterlimit:10;}
	.st78{fill:#E5F8FF;}
	.st79{fill:#B8ECFF;}
	.st80{fill:#D9FDFF;}
	.st81{fill:#C0DCEB;stroke:#45413C;stroke-linecap:round;stroke-linejoin:round;stroke-miterlimit:10;}
	.st82{fill:#46B000;stroke:#45413C;stroke-linecap:round;stroke-linejoin:round;stroke-miterlimit:10;}
	.st83{fill:none;stroke:#FFFFFF;stroke-miterlimit:10;}
	.st84{fill:none;stroke:#FFFFFF;stroke-linecap:round;stroke-linejoin:round;stroke-miterlimit:10;}
	.st85{fill:#FFE500;stroke:#45413C;stroke-linecap:round;stroke-linejoin:round;stroke-miterlimit:10;}
	.st86{fill:#80DDFF;stroke:#45413C;stroke-linecap:round;stroke-linejoin:round;stroke-miterlimit:10;}
	.st87{fill:#FFFFFF;stroke:#45413C;stroke-linejoin:round;stroke-miterlimit:10;}
	.st88{fill:#009FD9;stroke:#45413C;stroke-linecap:round;stroke-linejoin:round;stroke-miterlimit:10;}
	.st89{fill:#E04122;stroke:#45413C;stroke-linecap:round;stroke-linejoin:round;stroke-miterlimit:10;}
	.st90{fill:#009FD9;}
	.st91{fill:#FFFFFF;stroke:#45413C;stroke-miterlimit:10;}
	.st92{fill:#009FD9;stroke:#45413C;stroke-miterlimit:10;}
	.st93{fill:#FF8A14;stroke:#45413C;stroke-linecap:round;stroke-linejoin:round;stroke-miterlimit:10;}
	.st94{fill:none;stroke:#009FD9;stroke-linecap:round;stroke-linejoin:round;stroke-miterlimit:10;}
	.st95{fill:#525252;stroke:#45413C;stroke-linecap:round;stroke-linejoin:round;stroke-miterlimit:10;}
	.st96{fill:none;stroke:#46B000;stroke-linecap:round;stroke-linejoin:round;stroke-miterlimit:10;}
	.st97{fill:none;stroke:#E04122;stroke-linecap:round;stroke-linejoin:round;stroke-miterlimit:10;}
	.st98{fill:#6DD627;stroke:#45413C;stroke-miterlimit:10;}
	.st99{fill:none;stroke:#45413C;stroke-linejoin:round;stroke-miterlimit:10;}
	.st100{fill:#46B000;stroke:#45413C;stroke-miterlimit:10;}
	.st101{fill:#00DFEB;}
	.st102{fill:#00AD85;}
	.st103{fill:#E04122;stroke:#45413C;stroke-miterlimit:10;}
</style>
<g>
	<path class="st16" d="M43,10.4L26,9.6v1.6h-4V9.6L5,10.4c-1.1,0.1-1.9,0.9-1.9,2v27c0,1.2,1,2.1,2.1,2l13.4-0.8
		c0.4,0,0.8,0.2,0.9,0.5c0.3,0.7,1,0.9,1.9,0.9h5c0.9,0,1.6-0.3,1.9-0.9c0.1-0.4,0.6-0.6,0.9-0.5l13.4,0.8c1.2,0.1,2.1-0.8,2.1-2
		v-27C44.9,11.3,44.1,10.5,43,10.4z"/>
	<path class="st17" d="M43,10.4L26,9.6v1.6h-4V9.6L5,10.4c-1.1,0.1-1.9,0.9-1.9,2v3.5c0-1.1,0.8-1.9,1.9-2L24,13l19,0.9
		c1.1,0.1,1.9,0.9,1.9,2v-3.5C44.9,11.3,44.1,10.5,43,10.4z"/>
	<path class="st3" d="M43,10.4L26,9.6v1.6h-4V9.6L5,10.4c-1.1,0.1-1.9,0.9-1.9,2v27c0,1.2,1,2.1,2.1,2l13.4-0.8
		c0.4,0,0.8,0.2,0.9,0.5c0.3,0.7,1,0.9,1.9,0.9h5c0.9,0,1.6-0.3,1.9-0.9c0.1-0.4,0.6-0.6,0.9-0.5l13.4,0.8c1.2,0.1,2.1-0.8,2.1-2
		v-27C44.9,11.3,44.1,10.5,43,10.4z"/>
	<path id="XMLID_17263_" class="st37" d="M25.5,39.5h-2.9c-0.8,0-1.5-0.7-1.5-1.5v-2h6v2C27,38.8,26.3,39.5,25.5,39.5z"/>
	<ellipse id="XMLID_17262_" class="st0" cx="24" cy="43.5" rx="17" ry="1.5"/>
	<path id="XMLID_17261_" class="st38" d="M8.6,9.5l-2.2,2.7c-0.2,0.3-0.3,0.7-0.3,1.1V39l2.5-3.7V9.5z"/>
	<path id="XMLID_17260_" class="st38" d="M39.4,9.5l2.2,2.7c0.2,0.3,0.3,0.7,0.3,1.1V39l-2.5-3.7V9.5z"/>
	<path id="XMLID_17259_" class="st14" d="M6.4,12.2c-0.2,0.3-0.3,0.7-0.3,1.1v3.5c0-0.4,0.1-0.8,0.3-1.1L8.6,13V9.5L6.4,12.2z"/>
	<path id="XMLID_17258_" class="st14" d="M41.6,12.2l-2.2-2.7V13l2.2,2.7c0.2,0.3,0.3,0.7,0.3,1.1v-3.5C41.9,13,41.8,12.6,41.6,12.2
		z"/>
	<path id="XMLID_17257_" class="st3" d="M8.6,9.5l-2.2,2.7c-0.2,0.3-0.3,0.7-0.3,1.1V39l2.5-3.7V9.5z"/>
	<path id="XMLID_17256_" class="st3" d="M39.4,9.5l2.2,2.7c0.2,0.3,0.3,0.7,0.3,1.1V39l-2.5-3.7V9.5z"/>
	<path id="XMLID_17255_" class="st38" d="M24,37V11c0-1.7-1.3-3-3-3L9.5,8.9C9,9,8.6,9.5,8.6,9.5v29l12.6-0.4
		C21.7,37.5,22.7,37,24,37z"/>
	<path id="XMLID_17254_" class="st38" d="M27,8c-1.7,0-3,1.3-3,3v26c1.3,0,2.3,0.5,2.8,1.1l12.6,0.4v-29c0,0-0.4-0.5-0.9-0.6L27,8z"
		/>
	<path id="XMLID_17253_" class="st14" d="M21,8L9.5,8.9C9,9,8.6,9.5,8.6,9.5v2.9c0-0.5,0.4-1,0.9-1L21,10.5c1.7,0,3,1.3,3,3V11
		C24,9.3,22.7,8,21,8z"/>
	<path id="XMLID_17252_" class="st14" d="M38.5,8.9L27,8c-1.7,0-3,1.3-3,3v2.5c0-1.7,1.3-3,3-3l11.5,0.9c0.5,0,0.9,0.5,0.9,1V9.5
		C39.4,9.5,39,9,38.5,8.9z"/>
	<path id="XMLID_17251_" class="st3" d="M24,37V11c0-1.7-1.3-3-3-3L9.5,8.9C9,9,8.6,9.5,8.6,9.5v29l12.6-0.4
		C21.7,37.5,22.7,37,24,37z"/>
	<path id="XMLID_17250_" class="st3" d="M27,8c-1.7,0-3,1.3-3,3v26c1.3,0,2.3,0.5,2.8,1.1l12.6,0.4l0-29c0,0-0.4-0.5-0.9-0.6L27,8z"
		/>
	<path id="XMLID_17249_" class="st39" d="M24,37c-0.2-1.4-1.5-2.5-3-2.5L8.6,35.3L6.1,39l15.1-0.8C21.6,37.5,22.7,37,24,37z"/>
	<path id="XMLID_17248_" class="st39" d="M26.8,38.2L41.9,39l-2.5-3.7L27,34.5c-1.5,0-2.7,1.1-3,2.5C25.3,37,26.4,37.5,26.8,38.2z"
		/>
	<line id="XMLID_17247_" class="st3" x1="20.5" y1="11.5" x2="11.5" y2="12.4"/>
	<line id="XMLID_17246_" class="st3" x1="20.5" y1="15.3" x2="11.5" y2="16.2"/>
	<line id="XMLID_17245_" class="st3" x1="20.5" y1="19.2" x2="11.5" y2="20"/>
	<line id="XMLID_17244_" class="st3" x1="20.5" y1="23" x2="11.5" y2="23.8"/>
	<line id="XMLID_17243_" class="st3" x1="20.5" y1="26.8" x2="11.5" y2="27.7"/>
	<line id="XMLID_17242_" class="st3" x1="20.5" y1="30.6" x2="11.5" y2="31.5"/>
	<line id="XMLID_17241_" class="st3" x1="27.5" y1="11.5" x2="36.5" y2="12.4"/>
	<line id="XMLID_17240_" class="st3" x1="27.5" y1="15.3" x2="36.5" y2="16.2"/>
	<line id="XMLID_17239_" class="st3" x1="27.5" y1="19.2" x2="36.5" y2="20"/>
	<line id="XMLID_17238_" class="st3" x1="27.5" y1="23" x2="36.5" y2="23.8"/>
	<line id="XMLID_17237_" class="st3" x1="27.5" y1="26.8" x2="36.5" y2="27.7"/>
	<line id="XMLID_17236_" class="st3" x1="27.5" y1="30.6" x2="36.5" y2="31.5"/>
</g>
</svg>
